<?xml version='1.0' encoding='utf-8'?>
<svg xmlns:xlink="http://www.w3.org/1999/xlink" xmlns="http://www.w3.org/2000/svg" viewBox="0 0 800 600"><defs><style>.cls-1{isolation:isolate;}.cls-2{fill:#212430;}.cls-12,.cls-3{fill:#49a696;}.cls-4{opacity:0.3;fill:url(#Dégradé_sans_nom_31);}.cls-21,.cls-22,.cls-4{mix-blend-mode:multiply;}.cls-5{fill:#55c0b1;}.cls-6{fill:url(#Dégradé_sans_nom_55);}.cls-16,.cls-19,.cls-7{fill:none;stroke-miterlimit:10;}.cls-7{stroke:#373a43;stroke-width:4.9px;}.cls-8{fill:#f5b947;}.cls-9{fill:#373a43;}.cls-10{fill:#282b32;}.cls-11{opacity:0.2;fill:url(#Dégradé_sans_nom_9);}.cls-12{opacity:0.4;}.cls-13{fill:#5459f5;}.cls-14{fill:url(#Dégradé_sans_nom_66);}.cls-15{fill:#bfc7df;}.cls-16,.cls-19{stroke:#f5b947;stroke-width:1.41px;}.cls-16{stroke-linecap:round;}.cls-17{fill:#8085f6;}.cls-18{fill:#9196f7;}.cls-20{fill:#1c268f;}.cls-21{fill:url(#Dégradé_sans_nom_58);}.cls-22{fill:url(#Dégradé_sans_nom_58-2);}.cls-23{fill:url(#Dégradé_sans_nom_55-2);}.cls-24{fill:url(#Dégradé_sans_nom_55-3);}.cls-25{fill:#2e3241;}.cls-26{fill:#373b48;}</style><linearGradient id="Dégradé_sans_nom_31" x1="543.46" y1="629.47" x2="364.71" y2="491.18" gradientUnits="userSpaceOnUse"><stop offset="0" stop-color="#4048bd" stop-opacity="0"/><stop offset="1" stop-color="#5459f5"/></linearGradient><linearGradient id="Dégradé_sans_nom_55" x1="367.58" y1="164.57" x2="366.98" y2="128.09" gradientUnits="userSpaceOnUse"><stop offset="0" stop-color="#bfc7df"/><stop offset="1" stop-color="#e3e9fc"/></linearGradient><linearGradient id="Dégradé_sans_nom_9" x1="372.18" y1="143.62" x2="371.74" y2="252.44" gradientUnits="userSpaceOnUse"><stop offset="0.03" stop-color="#fff"/><stop offset="1" stop-color="#fff" stop-opacity="0"/></linearGradient><linearGradient id="Dégradé_sans_nom_66" x1="424.33" y1="340.75" x2="518.72" y2="340.75" gradientUnits="userSpaceOnUse"><stop offset="0" stop-color="#1c268f"/><stop offset="1" stop-color="#1c268f" stop-opacity="0"/></linearGradient><linearGradient id="Dégradé_sans_nom_58" x1="2075.08" y1="-917" x2="2061.92" y2="-929.97" gradientTransform="matrix(0.96, 0.27, -0.27, 0.96, -1821.25, 645.73)" gradientUnits="userSpaceOnUse"><stop offset="0.07" stop-color="#49a696"/><stop offset="1" stop-color="#49a696" stop-opacity="0"/></linearGradient><linearGradient id="Dégradé_sans_nom_58-2" x1="-3642.97" y1="1046.41" x2="-3658.01" y2="1031.58" gradientTransform="matrix(-0.75, 0.19, 0.24, 0.97, -2499.01, 0.81)" xlink:href="#Dégradé_sans_nom_58"/><linearGradient id="Dégradé_sans_nom_55-2" x1="489.06" y1="396.88" x2="486.43" y2="366.56" xlink:href="#Dégradé_sans_nom_55"/><linearGradient id="Dégradé_sans_nom_55-3" x1="615.93" y1="353.2" x2="424.25" y2="372.98" xlink:href="#Dégradé_sans_nom_55"/></defs><g class="cls-1"><g id="Calque_1" data-name="Calque 1"><path class="cls-2" d="M367.07,409.57l-21.86,92.35c-1.46,5.95,5.85,8.28,8.19,2.62l36.44-87.07Z"/><path class="cls-2" d="M526.58,409.57l21.87,92.35c1.46,5.95-5.85,8.28-8.19,2.62l-36.45-87.07Z"/><path class="cls-3" d="M556.27,407.52H337.39l9-87.08a101,101,0,0,1,100.45-90.6h0a101,101,0,0,1,100.44,90.6Z"/><path class="cls-4" d="M207.58,501.61c3.44-4.42,10-7.42,17.58-7.42H543.9c10.41,0,19,5.73,20,13h5.6c12.52,0,22.76,7.32,22.76,16.27h0c0,8.95-10.24,16.27-22.76,16.27H375.13c-10.95,0-20.16-5.6-22.3-13H225.16a24,24,0,0,1-17.38-7.18C204.11,515.58,204.14,506,207.58,501.61Z"/><path class="cls-5" d="M570.17,328.63h0a26.09,26.09,0,0,0-32.31,17.59l-9.05,30.71A18.26,18.26,0,0,1,511.3,390H382.36a18.26,18.26,0,0,1-17.51-13.09l-9.05-30.71a26.1,26.1,0,0,0-32.32-17.59h0a26.08,26.08,0,0,0-17.59,32.31L330.5,444.4a26.13,26.13,0,0,0,24.55,18.65l0,.08H537l0-.11a26.12,26.12,0,0,0,26.22-18.62l24.61-83.46A26.08,26.08,0,0,0,570.17,328.63Z"/><polygon class="cls-5" points="471.32 390.02 468.64 402.71 425.32 404.48 393.02 390.02 471.32 390.02"/><circle class="cls-6" cx="367.13" cy="136.77" r="21.75"/><path class="cls-7" d="M274.62,497.86V100a46,46,0,0,1,46-46h0a46,46,0,0,1,46,46v27.54"/><path class="cls-8" d="M416,143.45c2.3,0,4-3.12,3.44-6.32-3.76-21-26-37.14-52.81-37.14s-49.05,16.13-52.82,37.14c-.57,3.2,1.15,6.32,3.45,6.32Z"/><path class="cls-9" d="M416,143.45c2.3,0,4-3.12,3.44-6.32-3.76-21-26-37.14-52.81-37.14s-49.05,16.13-52.82,37.14c-.57,3.2,1.15,6.32,3.45,6.32Z"/><path class="cls-10" d="M373.55,106.47c22.42,0,41.11,14.87,45.46,34.65a6.78,6.78,0,0,0,.46-4c-3.76-21-26-37.14-52.81-37.14s-49.05,16.13-52.82,37.14c-.57,3.2,1.15,6.32,3.45,6.32h10.35C331,122.52,350.26,106.47,373.55,106.47Z"/><path class="cls-8" d="M232.85,488.29h83.53a15,15,0,0,1,15,15v0a4.12,4.12,0,0,1-4.12,4.12H222a4.12,4.12,0,0,1-4.12-4.12v0a15,15,0,0,1,15-15Z"/><path class="cls-9" d="M232.85,488.29h83.53a15,15,0,0,1,15,15v0a4.12,4.12,0,0,1-4.12,4.12H222a4.12,4.12,0,0,1-4.12-4.12v0a15,15,0,0,1,15-15Z"/><path class="cls-10" d="M257.61,503.31h0a15.06,15.06,0,0,1,15-15H232.85a15.06,15.06,0,0,0-15,15h0a4.13,4.13,0,0,0,4.12,4.12h39.77A4.13,4.13,0,0,1,257.61,503.31Z"/><polygon class="cls-11" points="417.25 143.45 508.75 343.89 233.98 343.89 318.51 143.45 417.25 143.45"/><path class="cls-12" d="M540.69,379.56c.26-.47,1-2.48-1.8-6.67s-6.81-3.22-6.6-3.8c.06-.17-12-1.78-11.9-2-18.36-2.87-18.75,4.21-42.82,4.21-48.24,0-101.9,10.05-111.14,21.14-2.13,3.1-.48,7.62,6,10.55,11.59,5.23,21.34-4.76,37.33-3.64a3.56,3.56,0,0,0,1.86,1.13c.22,0,4.14.17,5.44.43,2.34.3,4.69.57,7.1.8a37.64,37.64,0,0,0,8.93,1.86,107.72,107.72,0,0,0,23.08-.79c4.45,0,9.32-.14,14.71-.29a122.31,122.31,0,0,0,32.21,2,44,44,0,0,0,12.6-2.95,23,23,0,0,0,7.45,2.33c3.06.3,8.25-1.67,12.54-3.64,2.57-1.18,8.4-6.31,7.6-9.73-.15-.65-3.69-1.6-7.77-2.52a23.66,23.66,0,0,0,5.14-8.27A1.29,1.29,0,0,0,540.69,379.56Z"/><path class="cls-13" d="M469.76,250.72c-16.14,0-40.09,7.81-46.34,11.45s-37.3,43.91-30.85,61.49c5.49,15,38.22,19.77,38.22,19.77L456.93,355l43.43-11.15s29.81-3.43,36.32-10.46-9.9-60.3-14.06-65.25S490.85,250.72,469.76,250.72Z"/><polygon class="cls-14" points="429.07 324.91 424.33 340.73 458.86 356.59 518.72 340.75 501.74 333.96 429.07 324.91"/><path class="cls-15" d="M470.38,360.57s-48.7-22.47-63.13-28.06c-17.76-6.87-40.08-8.15-45.74,8.22-4.74,13.66,9.25,39,45.12,41.51C431.05,383.94,470.38,360.57,470.38,360.57Z"/><path class="cls-16" d="M501,177.49s10.25,8.84,5,30.81-29,12.1-29,12.1"/><path class="cls-8" d="M448.37,207.37c-.44,6,.77,16.11,6.24,19.63s28.42,8.56,33.79,5.52,13.2-10.19,14.93-18.88S492,186.13,492,186.13l-20.65,1.47L463,194Z"/><path class="cls-17" d="M481.69,252.24c0,3.12-5.34,5.65-11.93,5.65s-11.93-2.53-11.93-5.65c0-.82,1.17-7.37,1.57-13.23.54-7.85,20.82-3.26,21.06,1.17C480.66,243.94,481.69,251.43,481.69,252.24Z"/><path class="cls-18" d="M451.84,201.24c-1.25,10.38-.47,42,16.55,43.52s31.68-29.27,33.76-42.68-6-27.26-22.47-30S453.8,185,451.84,201.24Z"/><ellipse class="cls-18" cx="450.11" cy="205.56" rx="5.39" ry="6.98"/><ellipse class="cls-18" cx="498.5" cy="218.6" rx="7.03" ry="5.8" transform="translate(102.68 592.25) rotate(-67.03)"/><path class="cls-8" d="M522.91,164.75a21.38,21.38,0,0,0-42.76,0c0,.4,0,.8,0,1.19-14.52-1.09-31,9-31,32.82,4.32-.46,2.74,9,3.35,10.3.84,1.84,2.92-4,2.5-7.21a24.52,24.52,0,0,0,18.59,0c12.23-5.11,16.71-8.36,16.71-8.36s-1.9,10.88,2.85,17.09c-.76,4.56-.61,9.22.56,7.74,2.67-3.37,6.83-7.52,9.59-4.68,2.33-9.54,3.5-19.42,1.49-27.76A21.38,21.38,0,0,0,522.91,164.75Z"/><path class="cls-19" d="M485.05,165.35c0,11.79,10.05,20.17,20.53,20.17s19.27-9,19.27-20.78-8.71-21.84-19.2-21.84S485.05,153.56,485.05,165.35Z"/><path class="cls-16" d="M528.31,165c0-11.78-8.71-21.84-19.19-21.84"/><path class="cls-19" d="M492.19,190.53S484,202.4,469.76,204.66c-12.46,2-16.34-4.61-16.34-4.61"/><path class="cls-17" d="M462.38,249.94s-3.6,5.2-1.48,6.08,9.48,6,9.48,6l1.37-6.74Z"/><ellipse class="cls-20" cx="474.29" cy="261.71" rx="1.07" ry="1.51"/><path class="cls-20" d="M458.86,254.54a28.89,28.89,0,0,1,5.47,9.33l6.05-1.82S461.33,255.59,458.86,254.54Z"/><path class="cls-21" d="M422.42,317.08c-4.43-3.63-14.17-3.41-19.59-1.53,6.65-9.1,22.47-19.83,26.73-16.81S422.42,317.08,422.42,317.08Z"/><path class="cls-22" d="M506.28,317c4.64-3.55,14.59-3.14,20.07-1.15-6.5-9.24-22.34-20.29-26.8-17.35S506.28,317,506.28,317Z"/><path class="cls-23" d="M442.21,384.08c10.34,7.78,34,11.2,52.52,9.79s34.93-16,37.56-24.78S442.21,384.08,442.21,384.08Z"/><path class="cls-15" d="M473.89,383.07c-9.66,7.8-31.83,11.26-49.15,9.88S392,377,389.54,368.23,473.89,383.07,473.89,383.07Z"/><path class="cls-18" d="M389.05,367.87c-4-2.55-16.2-11.91-20.09-17.95-2.48-3.84-4.44-18.48-5.61-18.78-3-.77-7.52,5.09-8.54,7.67-1.71,4.31-5.66,10.11-5.37,13.17.7,7.31,8.76,14.9,13.91,24.89,1.57,2.2.95,13.14,3.08,15.61,8.6,10,19.74-5.92,36.68-3.57,16.66,2.3,32.95,3.95,69.64,2.63,30.13-1.08,60.71-10.74,62.17-31.27,3.27-45.9-104.16,2-112.89,6C405.1,374,396.17,372.45,389.05,367.87Z"/><path class="cls-24" d="M422,366.25a46.88,46.88,0,0,1-18.7,4.45h0c-5.12.4-6,17.81-.07,19.16.22,0,4.14.17,5.45.43,15.23,2,30.73,2.45,64,1.25,30.13-1.08,60.71-10.74,62.17-31.27C538.19,314.37,430.76,362.27,422,366.25Z"/><path class="cls-17" d="M501.38,387.66c4.87,2.92,9.28,5.18,13.41,5.59,3.06.3,8.24-1.67,12.54-3.64,2.57-1.18,8.39-6.31,7.59-9.73-.17-.73-4.63-1.84-9.33-2.87h0A17.34,17.34,0,0,0,514,382.33C510,386.55,501.38,387.66,501.38,387.66Z"/><rect class="cls-2" x="420.73" y="280" width="87.43" height="60.73" rx="3.6"/><rect class="cls-25" x="423.42" y="330.56" width="81.23" height="7.5" rx="2.63"/><path class="cls-17" d="M467.09,222.09c-.6-.92,2.52-2,3.94-1.61s3.55,2.77,2.4,3S467.92,223.38,467.09,222.09Z"/><path class="cls-26" d="M448,232.2c-1.75-.42-6-2.83-7.48-16.09l1.68-.19c1.66,14.41,6.42,14.66,6.48,14.67l0,1.69A2.67,2.67,0,0,1,448,232.2Z"/><path class="cls-2" d="M441.65,217.08c.42-.11.81-.43.82-.82a1.93,1.93,0,0,1,0-.48c.08-.31.49-.44.85-.46a2.76,2.76,0,0,0,1-.1c.23-.69-.62-1.54-1.08-2.12a2.71,2.71,0,0,1-.55-2,1,1,0,0,0-1,.3,2.26,2.26,0,0,0-.41.89C441,213.37,439.19,217.71,441.65,217.08Z"/><path class="cls-2" d="M491.56,163.25c6.14,2.92,13.06,7.27,18.14,18.72,3.59,8.49,1.94,21.12,1.14,24.71a7.45,7.45,0,0,1-.79,2.06l-8.78,19a6.28,6.28,0,0,1-3.87,3h0c-1.67.38-5.11,1.71-5.52-.1,0,0,9.28-21.13,15.69-23.71a16.84,16.84,0,0,0,1.24-5c.38-3.2,1.92-21.54-9.51-30.23,0,0-4.7-4.58-13.51-7.18-.39-.11-.79-.21-1.18-.28-9-1.74-15.11.2-15.11.2-13.86,2.52-20,19.74-21,22.79a19.49,19.49,0,0,0-1,4.49c5.18,8.4,2.23,28.33,2.23,28.33-1.11,1.43-3.67-1.35-5-2.47l0,0a6.73,6.73,0,0,1-2.23-4.53l2.17-20.35a7.53,7.53,0,0,1,.13-2.22c.77-3.6,5-15.81,11.76-21.79,9.28-7.95,16.74-8.57,23.46-8.35A37.26,37.26,0,0,1,491.56,163.25Z"/><path class="cls-2" d="M454.56,235.25l-4.79-.85a3.46,3.46,0,0,1-3-3.72h0a3.25,3.25,0,0,1,3.94-2.48l4.79.85a3.47,3.47,0,0,1,3,3.72h0A3.27,3.27,0,0,1,454.56,235.25Z"/></g></g></svg>